<svg width="27" height="24" viewBox="0 0 27 24" fill="none" xmlns="http://www.w3.org/2000/svg">
<path d="M13.5 0.5C2.78556 0.5 -0.0979119 4.44511 0.597831 12.288C1.29357 20.1309 4.09201 23.5 13.5 23.5C22.908 23.5 25.7064 20.1151 26.4022 12.288C27.0979 4.46089 24.2144 0.5 13.5 0.5ZM18.9113 2.29897C16.8164 7.63276 14.505 12.5563 13.7551 14.1816C13.7335 14.2323 13.6978 14.2755 13.6524 14.3058C13.6071 14.3361 13.5542 14.3522 13.5 14.3522C13.4458 14.3522 13.3929 14.3361 13.3476 14.3058C13.3022 14.2755 13.2665 14.2323 13.2449 14.1816C12.4718 12.6036 10.1527 7.63276 8.08866 2.29897C8.08263 2.28349 8.07993 2.26689 8.08063 2.25026C8.08132 2.23362 8.08542 2.21732 8.09276 2.20243C8.10003 2.18753 8.11031 2.17438 8.12299 2.16382C8.13559 2.15327 8.1502 2.14555 8.16597 2.14117C11.6934 1.52041 15.2989 1.52041 18.8263 2.14117C18.8427 2.14463 18.8582 2.15168 18.8718 2.16185C18.8852 2.17201 18.8964 2.18504 18.9045 2.20005C18.9126 2.21505 18.9174 2.23167 18.9185 2.24874C18.9198 2.26582 18.9173 2.28296 18.9113 2.29897ZM1.74194 12.1696C1.42499 8.52436 1.9352 6.09417 3.35761 4.50823C4.26672 3.56149 5.40588 2.87806 6.65853 2.52779C6.67546 2.52112 6.69386 2.51892 6.71187 2.5214C6.72988 2.52387 6.74696 2.53094 6.76165 2.54194C6.77626 2.55295 6.78793 2.56755 6.79559 2.58438C6.80324 2.60121 6.80664 2.61974 6.80541 2.63825V9.80257C6.80432 10.9936 7.09677 12.1657 7.65576 13.2111L12.4023 22.1113C12.4115 22.1292 12.4161 22.1492 12.4156 22.1694C12.4152 22.1896 12.4096 22.2094 12.3996 22.2268C12.3895 22.2442 12.3752 22.2587 12.3581 22.2688C12.341 22.279 12.3216 22.2845 12.3018 22.2849C8.59888 22.1508 6.11739 21.3933 4.5713 19.9178C3.0252 18.4424 2.113 16.0358 1.76513 12.1539L1.74194 12.1696ZM25.2735 12.1539C24.9334 16.0358 24.0676 18.466 22.4751 19.9178C20.8826 21.3696 18.4243 22.135 14.7446 22.2849C14.7244 22.2878 14.7039 22.2848 14.6852 22.2763C14.6666 22.2679 14.6508 22.2541 14.6394 22.2368C14.6281 22.2195 14.6218 22.1993 14.6213 22.1785C14.6208 22.1576 14.6259 22.1371 14.6364 22.1192L19.3906 13.2111C19.9496 12.1657 20.2421 10.9936 20.241 9.80257V2.63825C20.2397 2.61974 20.2431 2.60121 20.2508 2.58438C20.2584 2.56755 20.2701 2.55295 20.2847 2.54194C20.2994 2.53094 20.3165 2.52387 20.3345 2.5214C20.3525 2.51892 20.3709 2.52112 20.3879 2.52779C21.6397 2.88015 22.7783 3.56328 23.6888 4.50823C25.1112 6.08628 25.6214 8.52436 25.2967 12.1696" fill="#0B457F"/>
</svg>
